<?xml version="1.0" encoding="UTF-8"?>
<svg xmlns="http://www.w3.org/2000/svg" id="Layer_2" data-name="Layer 2" width="240" height="121.5611" viewBox="0 0 240 121.5611">
  <g>
    <path d="M50.9439,112.6456c.5666.6556-1.3292,1.3751-1.7582,1.0959-.5216.9848,1.7503,2.5963,1.7683,2.7667.138,1.3022-1.4084.8984-2.1015.3106-.5491-.4656-1.4092-2.6308-1.5615-2.6534-1.0969.2567-2.5954.025-3.6575.2386-.1551.0312-1.564,1.8679-2.0211,2.1881-.9099.6374-1.8555.6176-1.6467-.6582-2.4469.1842-7.6083,2.4381-7.9108-1.6501-.0439-.593.3888-3.8756.5406-4.5084.1851-.7717.9796-1.4443,1.606-.8084.7509.7624-.9699,4.4445-.2749,5.8723.5211,1.0705,4.9588-.2811,6.1626-.2443.734.0225.4779.3625.5681.422.28.1847,1.2128-.7675,1.3774-1.0726.4071-.7544-.078-1.4537,1.1708-1.3488.5855-.6378,2.4578-3.9392,3.0634-4.0916,1.6548-.4164,1.9664,3.6639,2.4672,4.0504.1789.1381,1.8997-.2652,2.2077.0912ZM46.5498,111.1076c-.347-.2582-1.0399.8494-1.2032,1.0994-.1267.194-.5383.3143-.1151.5493.56.3109,1.206-.0024,1.7607-.1154l-.4425-1.5333Z" fill="#253a82"></path>
    <path d="M52.9198,117.0306c.27-.7975.3465-2.1367.2368-2.9755-.0537-.4108-.4176-.2892-.4574-.4635-.161-.7038.9861-2.4244.0098-3.0421-.2908-.184-2.7267-.118-1.5661-1.5485.5219-.6432,4.5785.0201,5.5226.2273.9213.2021,3.2433.8809,2.3811,2.1786-.4005.6028-3.1501,1.1936-1.1914,1.4605,1.1121.1515,4.0995.2559,2.9822,2.0958-.856,1.4096-6.2901,2.0525-7.9176,2.0675ZM56.8712,111.1044c-.3576-.6579-1.5321-.4478-2.1939-.6548l-.0002,1.3164c.8373.1482,1.414-.5363,2.1941-.6616ZM59.0668,114.6159c-.0891-.4258-.4402-.3851-.7666-.4377-.5125-.0825-3.4881-.3572-3.6252-.2192l.0004,1.5385c.2883.2841,3.7576-.715,4.3914-.8815Z" fill="#253a82"></path>
    <path d="M116.5932,113.5201c-.3666.5133,1.017,1.337,1.4788,1.4845.8565.2736,2.3451.3718,3.1868.0396.1926-.076.1109-.5717.4891-.4238.5301.2074.7428.9383.3297,1.4227-1.1958,1.4021-4.1529.6303-5.5529-.1504-1.1338-.6322-1.7726-1.7865-3.0056-2.1509-.171,1.5059.7696,3.4996-1.5374,3.0699.2048-1.7644-.131-3.6566-.002-5.4865-1.067.5002-1.9875-1.1502-.6601-1.6476,1.5166-.5683,6.6133-.2446,7.9835.5846.8082.489,1.0985,1.2196.595,2.0668-.2487.4185-2.1161,1.1372-2.6688,1.2981-.31.0902-.6175-.1332-.6362-.107ZM118.3472,111.3277c-1.4244-.1261-5.2573-1.5526-4.8292.8754.8037-.0112,1.4426.2492,2.2731.2005.2621-.0154,3.1651-.5187,2.5561-1.0759Z" fill="#253a82"></path>
    <path d="M89.3667,113.743c.6813,1.1653,3.0417,1.7673,4.2346,1.4903.4174-.0969.8733-.6679,1.1297-.6122.9049.1965.4188,1.4262-.3332,1.8447-1.5475.8611-4.0914.0385-5.456-.8741-.3999-.2675-2.2554-2.2452-2.6481-1.8499.056.7687.6125,2.6967-.3676,3.0343-.1767.0609-.9094.0783-.9506.0382-.2832-.2757.0629-4.769-.0016-5.489-.9196.4464-1.8312-.5645-1.1183-1.4487.6469-.8024,2.6515-.3234,3.4274-.3076,1.4092.0286,5.6802-.2183,5.8135,1.8834.102,1.6073-2.5834,1.8784-3.7299,2.2908ZM91.342,111.7628c-.8322-.9175-3.1303-1.0881-4.2812-.8757-.7316.135-.5503.7155-.5486,1.316,1.7286.3501,3.1818.1508,4.8298-.4403Z" fill="#253a82"></path>
    <path d="M227.0278,111.985l-3.3368,3.6816c-1.3741.4501-1.1142-.6183-1.6253-1.4633-.1649-.2726-1.4073-2.1615-1.6198-1.9984-.245.8473-1.1848,4.8391-2.088,4.8346-1.6463-.0082.3547-3.8814.4958-4.778.1944-1.2357-.4526-3.888,1.7029-2.9124l2.636,3.9542c.9111-.1876,1.229-1.0248,1.7435-1.5521.4658-.4774.9097-.6007,1.3011-1.3245.2092-.3869.2047-1.1894.5675-1.413,2.2165-1.3659,1.8471,5.5557,2.0267,6.3281.1053.4528,1.1641,1.3954.2527,1.6713-2.0455.619-2.2644-3.8529-2.0563-5.0281Z" fill="#253a82"></path>
    <path d="M11.8621,116.8133c-.9887.4176-1.6773-.8461-1.7307-1.6359-.0985-1.4596-.2035-2.9783.0251-4.3954.1371-.8495.0604-2.3687,1.2712-2.0012,1.1316.3434.5057,2.0644.6529,2.9857l4.3911-.2219c.2243-.2169-1.0289-3.6395,1.3982-2.8219.5638.1899.4913,2.215.3607,2.8226.354-.1761,2.6348-.3927,2.6354-.1068.0275,1.4503-2.4296,1.1629-2.7592,1.6313-.08.1137-.2226,2.2786-.2668,2.7594-.0739.8028.476,1.7918-1.1297,1.624-.6103-1.4435-.1335-2.858-.2379-4.3715l-4.6102.2202v3.5115Z" fill="#253a82"></path>
    <path d="M211.2334,110.68c-.0822.1002-.0297.7154.0838.8807.4663.679,5.4055-.227,5.6137-.0138.0733.0751-.0112.6874-.1087.8788-.4363.8561-4.827.8685-5.8209.8761-.0891,1.9196.915,2.4222,2.6115,1.6221.5305-.2502,1.9554-2.0864,2.5594-1.1941.67.9898-2.1772,2.7749-2.9256,3.0208-2.7686.9098-4.1659-1.5937-4.2068-4.028-.0101-.6025.4888-.9917.4349-1.4977-.0644-.605-.8947-.6287-.5125-1.3761.5511-1.0776,1.644-.6518,2.3355-.7305.9048-.103,5.4157-.867,5.6195.369.1701,1.0313-2.1447.6775-2.7292.744-.4325.0492-2.8598.3332-2.9545.4487Z" fill="#253a82"></path>
    <path d="M64.5563,116.8133c-2.0061.379-1.3631-1.9379-1.5472-3.1722-.0717-.4804-.6064-.7806-.4304-1.5099.0393-.1627.4126-.1313.4458-.2938.1314-.6443-.6355-3.5845,1.0976-3.0567,1.1319.3447.5056,2.0635.6529,2.9857,1.4758-.1326,2.9427.0985,4.3681-.2423.2552-.301-.7008-2.705.5698-2.8518,1.7346-.2004,1.3462,1.6681,1.2121,2.8729.3538-.1766,2.6348-.3923,2.6353-.1068.0275,1.4503-2.4296,1.1629-2.7592,1.6313-.5936.8435.7499,4.8091-1.3966,4.3834-.6103-1.4435-.1335-2.858-.2379-4.3715l-4.6102.2202v3.5115Z" fill="#253a82"></path>
    <path d="M150.8748,112.3892c.121.1011,3.1061-.0939,2.1403,1.1095-.1186.1478-1.5256.0964-1.7301.5802-.153.7091,3.3982,3.6952.8685,3.3001-1.903-.2972-2.4801-3.1713-2.7675-3.2138-1.1078.2281-2.3267.0176-3.4299.2918-1.011.2513-1.8839,2.4865-3.1239,2.551-.9498.0494-.9156-.659-.5077-1.3586.3065-.5256,1.147-.7552,1.497-1.1976.445-.5625.4152-1.3763.6278-1.6799.1531-.2187.6422-.052,1.0104-.3496.9819-.7936,2.7078-5.541,4.1678-3.282.346.5354,1.0646,3.0963,1.2473,3.2489ZM149.0821,112.6366c.1622-.2342-.4486-1.3956-.5433-1.748-.2451.2625-1.5236,1.6691-1.2076,1.973.3129.0529,1.6415-.0671,1.7509-.225Z" fill="#253a82"></path>
    <path d="M195.6342,112.6448c.4039-.1479,2.0809-.2956,2.2063.1216.3676,1.2231-1.1857.6005-1.7655,1.3126-.1819.8429,2.8856,2.9511,1.396,3.3766-1.5018.4289-2.8241-2.2304-3.2951-3.2903-1.1077.2282-2.3268.0174-3.4299.2918-1.2782.3179-2.1142,3.401-3.8865,2.3416-.2067-1.4613,1.1654-1.4747,1.7466-2.3514.8262-1.2461.296-.8782,1.5137-1.9487.9343-.8214,2.3202-3.7009,3.0939-3.9379,1.4166-.434,2.1855,3.077,2.4205,4.0841ZM192.1211,112.8617c2.1088.1802,1.9344-.3029,1.314-1.9739-.3851.1576-1.5974,1.6995-1.314,1.9739Z" fill="#253a82"></path>
    <path d="M175.4443,112.6375c.1225.0883,3.3598-.5466,1.9673.776-.3442.3269-1.4551.2771-1.5369.6647-.0912,1.0077,2.1825,2.4264,1.7295,3.1496-.0788.1258-.6484.1848-.8602.1513-1.9054-.3011-2.4796-3.1712-2.7674-3.2137-1.0529.2322-2.3943.0142-3.4292.2875-1.0783.2848-1.8773,2.4904-3.1246,2.5552-.9498.0494-.9156-.659-.5077-1.3586.3065-.5256,1.147-.7551,1.497-1.1976.445-.5625.4152-1.3763.6278-1.6799.1531-.2187.6422-.052,1.0104-.3496.7035-.5685,2.2798-3.7441,2.9073-3.9159,1.7137-.4693,2.0673,3.8287,2.4867,4.131ZM171.9216,112.8617c2.2026.1725,1.8019-.2958,1.314-1.9739-.3852.1575-1.5974,1.6995-1.314,1.9739Z" fill="#253a82"></path>
    <path d="M103.1987,110.1194c.1892-1.1046,1.0291-1.2986,1.9786-.9863l-.7504,7.9136c-1.5784.9053-1.1293-1.12-1.6636-1.6636-.2807-.2856-1.1399-.3339-1.6141-.5812-1.0753-.5609-2.1431-1.4278-3.1115-2.157-.4584.843.0976,4.2816-1.0976,4.4017-.2566.0258-.7672-.1312-.7672-.3429v-7.0231c0-.0728.4421-.4724.5967-.5163.9947-.2823,1.3105,1.0291,1.8233,1.6088,1.2526,1.4158,2.7968,2.5874,4.6059,3.1872.1393-1.1714-.1906-2.7276,0-3.8407Z" fill="#253a82"></path>
    <path d="M128.7276,109.2858c.481.3254,1.2895.3767,1.7535.7176,1.1761.8639,1.9452,3.1127.921,4.3857-.6959.865-3.5459,2.1798-4.653,2.3715-3.8222.6618-5.2658-1.2742-3.6857-4.781.6376-1.4151,1.4242-2.6937,3.1342-2.7947.7677-.0453,2.2932.7625,2.0329-.4919.3246-.0009.3346.4829.4971.5928ZM128.9645,114.0403c.406-.2606.9387-.308,1.2508-.8376.6411-1.088-.8862-2.3382-1.9337-2.4868-1.7636-.2502-3.3545.8831-3.9583,2.5226-.7721,2.0966.0301,2.3049,2.0201,2.019,1.1005-.1581,1.8251-.7061,2.6211-1.2172Z" fill="#253a82"></path>
    <path d="M74.2778,116.528c-.0469-.0233-.6857-.7233-.707-.7711-.9519-2.133,1.1195-6.4357,3.6649-6.5726.5031-.0271.9479.2445,1.4682.1698.2946-.0423.5736-.3921.6779-.39.1564.0032.3464.3973.5589.4815.9716.3853,1.1729.2284,1.9552,1.1182,3.7337,4.2463-4.7503,7.3884-7.6182,5.9641ZM80.7282,111.4024c-.9541-.9666-3.0132-.861-4.0827-.1721-.6424.4137-2.3378,3.4955-1.5173,4.0159.7271.4612,3.3557-.268,4.1916-.6843,1.2911-.6429,2.8386-1.7106,1.4084-3.1595Z" fill="#253a82"></path>
    <path d="M21.3032,110.1194c.1468-.9227,1.532-.6549,1.7236.048.1822.6686-.2665,3.2923-.1862,4.3451.018.2361-.1223.7333.326.5432.1408-.0597,2.2224-1.6213,2.4504-1.8314.1922-.1771,1.0284-1.1344,1.1767-1.3477.5909-.85.3532-2.8354,1.7503-2.1953,1.1547.529.2962,1.4913.2128,2.4017-.0689.7516-.0575,3.5451.814,3.8183.3848.1206,2.9508-.1011,1.5119,1.1411-1.9691,1.6997-4.0512-1.2135-4.0735-3.0817-.9034.6649-3.335,2.8914-4.329,3.045-.728.1125-1.3769-1.0858-1.3769-1.6189,0-1.5-.2159-3.9106,0-5.2673Z" fill="#253a82"></path>
    <path d="M199.8047,110.8876c-.0977-.0942-1.0213.1315-1.2851-.0318-.2148-.1329-.3867-1.1023-.0334-1.3964,1.8357-1.5278,9.1564,1.7857,8.9526,4.3544-.1862,2.3478-4.5005,1.8941-5.9365,2.3414-.3115.097-.1959.721-.9362.8732-1.1081.2277-.5933-.3553-.8061-.5954-.1331-.1502-.7387-.0831-.8335-.3922-.187-.6096.8782-1.1591.8782-1.3126,0-.5399.1383-3.7075,0-3.8407ZM205.733,113.9579c.6479-.7414-3.4042-3.2802-4.3904-2.8497l.0004,3.7291c1.4975-.2239,2.9547-.3743,4.39-.8794Z" fill="#253a82"></path>
    <path d="M235.8891,111.1837c.4454-.413,1.1957-.8386,1.6175-1.2375.3764-.356.034-.8603,1.1526-1.1451.9646-.2456,1.4712-.4018,1.3119.6445-.2434,1.5985-3.5119,2.8629-3.8929,4.2315-.1168.4194-.2409,2.0179-.2749,2.5783-.0603.9945.2511,4.319-.2083,4.8391-.1043.1181-.6179.3565-.7624.326-.9045-.1907-.5094-4.1808-.5478-4.9455-.026-.5179-.1656-2.2077-.2726-2.5809-.1703-.594-2.9716-2.8949-3.4813-3.7618-.502-.8537-.2659-1.5179.7668-1.4343,1.3272.1074,2.5601,2.8833,3.5268,3.722.4717-.273.7355-.9311,1.0647-1.2363Z" fill="#253a82"></path>
    <path d="M142.2737,108.4733c.0136.2697.2126.5389.2221.7936.0456,1.2325-3.6562,3.114-4.0708,4.461-.2215.7196-.2662,2.7159-.3212,3.6235-.032.5281.3646,5.0548-1.0906,4.0699-.6099-.4128-.373-6.3473-.5518-7.452-.5891-.9766-3.1311-2.9214-3.5074-3.7438-.2403-.5253-.2754-1.4875.436-1.5443,1.4811-.1181,2.6181,2.763,3.5054,3.5285.6602.5695.4812-.0519.8713-.4486.6441-.6551,1.4839-1.2239,2.105-1.8545.2043-.2074.1278-.5863.3628-.7896.1998-.1729,1.9524-.7062,2.0392-.6438Z" fill="#253a82"></path>
    <path d="M187.5101,113.5248c.4317.5839-1.4141,2.0908-1.9053,2.3723-3.9849,2.2843-8.5261.8172-6.3365-4.3587,1.0031-2.3711,3.3722-3.7056,5.5975-1.849,1.193.9954.8122,3.2529-.7318,2.7124-.5537-.1938-.3451-1.5593-.7868-1.8518-1.8385-1.2172-4.0227,3.4746-2.5489,4.5226,1.1486.8168,2.9107.1985,4.0071-.4138.6295-.3516,2.1173-1.9288,2.705-1.1341Z" fill="#253a82"></path>
    <path d="M6.7815,112.173c-.0969.1549-1.2627.3597-1.4794.2239-.4433-.2779.3937-2.5673-1.8453-1.907-1.1072.3265-2.5919,3.7519-1.3271,4.5842,1.3902.9148,3.1281.0774,4.3968-.6314.8049-.4497,1.1526-1.4627,2.2592-.9163-.2479,2.8678-6.5309,4.4446-8.1268,2.4657-2.161-2.6798,1.3516-9.4001,5.3476-6.384.7142.5391,1.2416,1.819.775,2.565Z" fill="#253a82"></path>
    <path d="M156.7169,108.9689c.9007,1.0768-1.9958,6.362.8092,6.318.7809-.0123,5.347-.9453,5.6128-.669-.0434.299.102.8499-.0309,1.0672-.1481.2423-5.024,1.1296-5.5678,1.126-4.5211-.0298-2.4843-4.6977-2.5347-7.5324.3631-.3653,1.3289-.767,1.7114-.3098Z" fill="#253a82"></path>
  </g>
  <g>
    <path d="M44.5317.5589c10.144-.7125,20.9107.404,31.1202-.0729,13.3342,1.6941,12.9989,20.4782-.8776,21.5246-15.9769,1.2048-37.8697-5.0947-47.5807,11.6955-7.5172,12.9971-2.6865,29.8356,11.3068,35.7397,10.2158,4.3103,25.3138,1.2447,36.4815,2.16,14.0119,1.1485,13.2467,20.289-.2076,21.0742-22.7708-.1959-43.3415,3.4885-60.2832-14.8169C-11.3641,49.9266,6.6238,3.2215,44.5317.5589Z" fill="#f26c21"></path>
    <path d="M91.1229,92.452L91.3414.0538l41.1776-.008c15.6758,1.1431,28.4654,11.6118,30.3718,27.5807,1.9256,16.1297-9.3594,31.4512-25.4408,33.8824l9.8772,9.5476c.3578.162.8226.7512,1.1094.8663.525.2107,5.5488.211,5.7226-.0174l30.0879-62.9309c2.4569-5.5757,5.3631-9.6063,12.1275-8.8926,4.6192.4874,6.5632,3.3708,8.449,7.1368l33.0707,70.9717c2.6095,6.3696-1.2688,13.7105-8.3314,14.2695h-29.6588c-12.7943-.1662-20.1211,1.4288-22.3862-7.2488-.822-3.1493-.4682-6.3846,1.5569-8.9815,3.3337-4.2749,7.9783-4.0468,12.9265-4.1974h20.5378s-17.5674-37.7394-17.5674-37.7394l-26.8908,54.4307c-1.7111,1.9505-3.9556,3.3803-6.5801,3.7377l-22.0738-.12-27.885-29.2983v29.4091h-20.419ZM111.5419,20.9046v23.2745s22.2621,0,22.2621,0c9.9313-1.4417,13.4464-14.6676,5.5069-20.8551-1.116-.8698-4.3564-2.4194-5.7033-2.4194h-22.0657Z" fill="#253a82"></path>
  </g>
</svg>
